<svg xmlns="http://www.w3.org/2000/svg" xmlns:xlink="http://www.w3.org/1999/xlink" width="890.069" height="692.729" viewBox="0 0 890.069 692.729">
  <defs>
    <linearGradient id="linear-gradient" x1="0.5" y1="1" x2="0.5" gradientUnits="objectBoundingBox">
      <stop offset="0" stop-color="gray" stop-opacity="0.251"/>
      <stop offset="0.535" stop-color="gray" stop-opacity="0.122"/>
      <stop offset="1" stop-color="gray" stop-opacity="0.102"/>
    </linearGradient>
  </defs>
  <g id="undraw_chef_cu-0-r" transform="translate(0 0)">
    <ellipse id="Ellipse_24" data-name="Ellipse 24" cx="324" cy="11.547" rx="324" ry="11.547" transform="translate(0 664.848)" fill="#6c63ff" opacity="0.1"/>
    <path id="Path_188" data-name="Path 188" d="M393.787,124.6c20.641-18.394,53.042-22.143,82.534-20.678,92.634,4.6,176.254,49.324,248.584,99.91,26.185,18.313,51.965,38.048,68.962,63.266,34.6,51.336,24.337,122.453-23.776,164.745-16.369,14.389-36.213,25.419-56.585,35.2-36.222,17.386-75.3,31.343-116.416,35.316-29.317,2.833-58.995.53-88.14-3.423C427.52,487.89,347.591,463.47,280.6,421.69c-29.383-18.324-57.077-41.106-69.188-70.75s-4.36-67.21,25.643-84.756c12.409-7.257,27.245-10.535,41.77-13.612,21.38-4.53,43.1-9,62.4-18.205,19.928-9.512,43.526-27.907,39.58-48.962C376.567,162.813,373.17,142.973,393.787,124.6Z" transform="translate(-154.965 -103.636)" fill="#6c63ff" opacity="0.1"/>
    <ellipse id="Ellipse_25" data-name="Ellipse 25" cx="86.653" cy="7.667" rx="86.653" ry="7.667" transform="translate(716.763 677.395)" fill="#6c63ff" opacity="0.1"/>
    <path id="Path_189" data-name="Path 189" d="M606.9,364.53c-1.411-2.731-8.869-19.7-8.869-19.7l-12.5-32.382s-8.869-13.655-8.869-16.191-16.125-12.68-16.125-12.68-13.1-3.9-14.11-4.292-16.528-5.524-16.528-5.524-6.112-8.037-6.982-5.938v.005c-.032-.053-.064-.1-.1-.154a20.75,20.75,0,0,1-2.33-7.514c-.033-.234-.062-.48-.091-.724a29.911,29.911,0,0,0,13.128-24.628,29.511,29.511,0,0,0-.258-3.828,2.681,2.681,0,0,1,.347-.183c.251-.109.187-.2,0-.29.063-.033.126-.068.19-.1.334-.145.111-.255-.212-.385l.019-.01c.455-.2-.12-.328-.582-.537-.025-.135-.048-.27-.075-.4a2.722,2.722,0,0,0,.185-.8c.041.02.078.042.122.061a3.415,3.415,0,0,0-.008-1.526,2.68,2.68,0,0,1-.1.3,2.547,2.547,0,0,0-1.173-2.309l-.072-.062.855-8.751c12.6-.6,14.816-22.04,11.941-23.232s0-3.773,0-8.935-9.509-10.921-9.509-10.921-3.98,1.986-10.172-7.942-28.969-11.516-30.516-8.935-11.72,5.957-24.988,9.729-10.836,19.459-8.624,22.834a19.266,19.266,0,0,1,3.1,9.332c0,1.986,4.2,10.325,4.2,10.325-1.325,2.89,2.047,18.721,3.046,23.22-.016.138-.032.276-.046.415-.008.014-.02.025-.028.039a2.112,2.112,0,0,0-.129.226,2.589,2.589,0,0,0-.2,1.492,3.118,3.118,0,0,0,.224,1.631,29.758,29.758,0,0,0,10.552,22.2c.016.271.031.543.046.822.186,3.675.29,8.021.1,12.18-.01.213-.026.421-.038.633a4.759,4.759,0,0,0-3.373,2.66c-1.25,2.4-8.506,6.11-8.506,6.11s-12.7.585-13.908,2.926-19.552,10.144-19.552,10.144-9.675,5.657-8.264,12.095c.737,3.364-1.332,8.589-3.477,12.815a60.856,60.856,0,0,0-13.915-3.47L421,324.209c-.215.336-.342.526-.342.526l-5.845,20.678s-2.016,7.218-4.031,8.973,1.814,17.751,1.814,17.751-2.217,11.314-4.031,14.24,2.822,10.144,2.822,10.144l9.272,21.068,24.591,6.242s1.639.347,4.287.914q-.125.755-.255,1.505c-1.185,6.711-2.741,12.883-4.636,14.552-4.636,4.1-4.434,22.433-4.434,22.433l.2,25.945s1.613,31.992.806,33.162c-.509.739.512,1.944,3.207,3.026-.077.482-.153.97-.224,1.468-.758,5.306-1.1,11.361.645,14.037a10.664,10.664,0,0,1,1.209,4.682c0,2.536,3.83,7.8,3.83,7.8s-3.023,21.653,2.016,29.066,9.272,20.873,6.853,23.994c0,0-4.233,9.168-2.217,13.265s0,6.437-2.62,7.413-2.395,8.973-2.395,8.973l4.813,38.039s2.62,7.8.4,10.534-2.217,16.386,1.209,21.068-4.838,13.265-4.838,13.265-5.039,7.218,3.023,9.559c0,0,1.613.39-1.411,3.511s-3.628,7.023-1.613,8.388a9.223,9.223,0,0,0,1.307.649c-.075.462-.156.941-.251,1.45-.774,4.073-2.233,9.379-4.886,11.946a85.159,85.159,0,0,0-13.2,17.588c-2.765,5.244-3.975,10.152-.911,12.453,7.256,5.462,16.528,7.218,21.971,5.072s13.1-8.778,13.1-8.778l1.814-7.608s-1.209-4.682,4.838-6.437,11.691-8,11.691-8V748.658a42.852,42.852,0,0,0,4.233-2.762s2.822-9.949,0-13.265-3.83-4.487-.2-6.632,4.12-6.828,1.459-10.924-6.9-10.144-3.273-18.727,4.959-34.918,4.959-34.918-1.693-17.947,0-22.043-1.935-12.289-1.935-12.289,1.209-10.144,3.427-14.826,4.031-29.456,4.031-29.456,4.031-10.534,4.031-17.361-6.249-23.214,3.023-27.505c0,0,4.031,3.511,2.419,17.557,0,0,4.636,16.386,4.636,21.458s3.427,23.409,3.427,23.409.4,5.852,1.814,8,0,8,0,8,5.241,4.877,3.83,8,.242,10.159.242,10.159l-1.25,43.68s-3.628,18.727,4.838,30.041c0,0-3.023,16.581-4.838,17.752s6.652,11.314,6.652,11.314-2.346,6.571,2.419,6.893v10.858a23.2,23.2,0,0,0,6.652,7.413c4.434,3.121,2.62,13.85,2.62,13.85s5.644,13.655,20.56,10.729,16.932-4.292,16.125-9.168c-.29-1.779-.935-4.955-1.862-8.56-1.6-6.266-4.064-13.827-7.006-17.557-4.636-5.876-8.466-18.165-8.466-18.165s-1.814-4.1,0-5.462,1.008-3.9,1.008-3.9,1.766-5.072.177-8.193,3.048-9.559,3.048-9.559l-1.411-30.041,1.411-43.7s-6.249-7.218-3.628-11.509-3.023-10.339-3.023-10.339-.6-.2,1.008-5.072a12.155,12.155,0,0,0-.4-8.778s-3.427-12.094,2.62-21.263c0,0,2.62-12.094,3.427-18.337.556-4.338,4.039-20.545,6.112-30.026l.337-1.539c2.985.163,5.242.353,5.242.353s-4.636-32.187,0-38.819-3.628-57.351-3.628-57.351-1.975-8.864-3.193-17.908c-.07-.515-.133-1.03-.2-1.545a97.706,97.706,0,0,1,11.251-.25c9.675.585,19.149-3.121,19.35-6.828s5.442-18.337,6.249-21.653S608.315,367.261,606.9,364.53Z" transform="translate(-154.965 -103.636)" fill="url(#linear-gradient)"/>
    <path id="Path_190" data-name="Path 190" d="M489.291,740.846v18.063s-5.438,6.215-11.265,7.963-4.661,6.409-4.661,6.409l-1.748,7.575s-7.38,6.6-12.624,8.74-14.178.388-21.17-5.05c-2.952-2.292-1.787-7.178.878-12.4a84.567,84.567,0,0,1,12.718-17.511c2.556-2.556,3.962-7.839,4.708-11.894.552-3.038.73-5.392.73-5.392Z" transform="translate(-154.965 -103.636)" fill="#4c495a"/>
    <path id="Path_191" data-name="Path 191" d="M489.291,754.325v4.584s-5.438,6.215-11.265,7.963-4.661,6.409-4.661,6.409l-1.748,7.575s-7.38,6.6-12.624,8.74-14.178.388-21.17-5.05c-2.952-2.292-1.787-7.178.878-12.4-.124,5.485,1.5,11.646,9.416,11.428a40.1,40.1,0,0,0,23.5-8.546s-.194-12.819,8.74-15.732a27.213,27.213,0,0,0,8.934-4.972Z" transform="translate(-154.965 -103.636)" opacity="0.1"/>
    <path id="Path_192" data-name="Path 192" d="M560.376,787.071c-14.372,2.913-19.811-10.682-19.811-10.682s1.748-10.682-2.525-13.79a22.92,22.92,0,0,1-6.409-7.38V737.35l17.48-12.43,9.462,8.375.637.559s3.69,12.236,8.157,18.086c2.836,3.714,5.205,11.242,6.751,17.48.894,3.589,1.515,6.751,1.795,8.522C576.691,782.8,574.748,784.157,560.376,787.071Z" transform="translate(-154.965 -103.636)" fill="#4c495a"/>
    <path id="Path_193" data-name="Path 193" d="M560.376,787.071c-14.372,2.913-19.811-10.682-19.811-10.682s1.748-10.682-2.525-13.79a22.92,22.92,0,0,1-6.409-7.38V748.3c2.774,2.929,8,8.6,9.128,11,1.554,3.3,1.748,15.344,8.934,17.48s21.17,4.079,22.336-1.36a30.3,30.3,0,0,1,2.09-6c.894,3.589,1.515,6.751,1.795,8.523C576.691,782.8,574.748,784.157,560.376,787.071Z" transform="translate(-154.965 -103.636)" opacity="0.1"/>
    <path id="Path_194" data-name="Path 194" d="M456.856,737.35l32.435,3.5v9.548c-3.659,2.167-8.9,4.467-11.848,2.105-4.351-3.48-17.286-7.9-21.318-9.758C456.677,739.7,456.856,737.35,456.856,737.35Z" transform="translate(-154.965 -103.636)" opacity="0.1"/>
    <path id="Path_195" data-name="Path 195" d="M559.211,735.408c-4.467-1.554-12.43,5.244-22.918,9.517a10.919,10.919,0,0,1-4.661,1.041V737.35l17.48-12.43,9.462,8.375a11.812,11.812,0,0,0,.637,2.113Z" transform="translate(-154.965 -103.636)" opacity="0.1"/>
    <path id="Path_196" data-name="Path 196" d="M570.67,521.57s-.614,2.859-1.492,7.007c-2,9.439-5.353,25.575-5.889,29.895-.777,6.215-3.3,18.257-3.3,18.257-5.827,9.128-2.525,21.17-2.525,21.17a12.467,12.467,0,0,1,.388,8.74c-1.554,4.855-.971,5.05-.971,5.05s5.438,6.021,2.913,10.294,3.5,11.459,3.5,11.459l-1.36,43.506,1.36,29.91s-4.467,6.409-2.937,9.517-.171,8.157-.171,8.157.777,2.525-.971,3.884,0,5.438,0,5.438c-4.467-1.554-12.43,5.244-22.918,9.517s-6.992-5.827-6.992-5.827-8.157-10.1-6.409-11.265,4.661-17.674,4.661-17.674c-8.157-11.265-4.661-29.91-4.661-29.91l1.2-43.49s-1.593-7.008-.233-10.115-3.69-7.963-3.69-7.963,1.36-5.827,0-7.963-1.748-7.963-1.748-7.963-3.3-18.257-3.3-23.307-4.467-21.364-4.467-21.364c1.554-13.984-2.331-17.48-2.331-17.48-8.934,4.273-2.913,20.588-2.913,27.385s-3.884,17.286-3.884,17.286-1.748,24.666-3.884,29.327-3.3,14.761-3.3,14.761,3.5,8.157,1.865,12.236,0,21.947,0,21.947-1.282,26.22-4.778,34.766.583,14.567,3.154,18.645,2.09,8.74-1.406,10.876-2.525,3.3.194,6.6,0,13.207,0,13.207-11.071,8.74-15.926,4.856-20.393-8.934-22.336-10.294-1.36-5.244,1.554-8.352,1.36-3.5,1.36-3.5c-7.769-2.331-2.913-9.517-2.913-9.517s7.963-8.546,4.661-13.207-3.3-18.257-1.165-20.976-.388-10.488-.388-10.488l-4.638-37.873s-.218-7.963,2.307-8.934,4.467-3.3,2.525-7.38,2.136-13.207,2.136-13.207c2.331-3.108-1.748-16.509-6.6-23.889S452,554.393,452,554.393s-3.69-5.244-3.69-7.769a10.883,10.883,0,0,0-1.165-4.661c-1.678-2.665-1.352-8.693-.622-13.976.707-5.112,1.787-9.525,1.787-9.525Z" transform="translate(-154.965 -103.636)" fill="#5f5d7e"/>
    <path id="Path_197" data-name="Path 197" d="M532.6,301.517l-38.262,8.934s-18.84-15.926-14.178-24.472c1.6-2.937,2.307-7.948,2.548-13.246.186-4.141.085-8.468-.093-12.127-.272-5.291-.707-9.2-.707-9.2s39.233-22.141,37.873,0a56.55,56.55,0,0,0,.256,11.063,21.149,21.149,0,0,0,2.245,7.481c2.1,3.737,4.685,3.791,4.685,3.791Z" transform="translate(-154.965 -103.636)" fill="#fdc2cc"/>
    <path id="Path_198" data-name="Path 198" d="M520.04,262.471a30.092,30.092,0,0,1-37.423-1.865c-.272-5.291-.707-9.2-.707-9.2s39.233-22.141,37.873,0a56.551,56.551,0,0,0,.256,11.063Z" transform="translate(-154.965 -103.636)" opacity="0.1"/>
    <circle id="Ellipse_26" data-name="Ellipse 26" cx="30.104" cy="30.104" r="30.104" transform="translate(317.429 103.49)" fill="#fdc2cc"/>
    <path id="Path_199" data-name="Path 199" d="M532.6,301.517l-38.262,8.934s-18.84-15.926-14.178-24.472c1.6-2.937,2.307-7.948,2.548-13.246a19.519,19.519,0,0,0,6.969,11.692c8.74,5.827,7.38,13.013,7.38,13.013l15.732-.583c-.971-6.409,4.856-9.905,6.8-10.682s.971-4.273.971-4.273l1.725-11.948c2.1,3.737,4.685,3.791,4.685,3.791Z" transform="translate(-154.965 -103.636)" opacity="0.1"/>
    <path id="Path_200" data-name="Path 200" d="M570.67,521.57s-.614,2.859-1.492,7.007c-4.226-.225-9.812-.388-12.3.179-4.273.971-21.364,1.36-21.364,1.36l-42.341,1.5V530.31a124.84,124.84,0,0,0-14.567.971c-7.186.971-18.451-.388-25.637-1.554a27.6,27.6,0,0,1-6.448-1.74c.707-5.112,1.787-9.525,1.787-9.525Z" transform="translate(-154.965 -103.636)" opacity="0.1"/>
    <path id="Path_201" data-name="Path 201" d="M567.368,398.239c-.614,3.628-.163,9.641.614,15.577,1.173,9,3.076,17.829,3.076,17.829s7.963,50.5,3.5,57.1,0,38.65,0,38.65-13.4-1.165-17.674-.194-21.364,1.36-21.364,1.36l-42.34,1.5v-1.305a124.853,124.853,0,0,0-14.567.971c-7.186.971-18.451-.388-25.637-1.554s-10.1-3.5-9.323-4.661-.777-33.018-.777-33.018l-.194-25.831s-.194-18.257,4.273-22.336c1.826-1.663,3.325-7.808,4.467-14.489,1.639-9.672,2.525-20.471,2.525-20.471L424.421,328.32l-.583-1.554s8.546-13.207,7.186-19.616,7.963-12.042,7.963-12.042,17.674-7.769,18.84-10.1,13.4-2.913,13.4-2.913,6.992-3.69,8.2-6.083a4.594,4.594,0,0,1,3.255-2.649,19.56,19.56,0,0,0,7,11.84c8.74,5.827,7.38,13.013,7.38,13.013l15.732-.583c-.971-6.409,4.856-9.905,6.8-10.682s.971-4.273.971-4.273l1.818-12.578c.839-2.09,6.728,5.912,6.728,5.912s14.955,5.112,15.926,5.5,13.6,4.273,13.6,4.273,15.538,10.1,15.538,12.624,8.546,16.12,8.546,16.12-.1.544-.287,1.538C580.451,326.774,568.79,389.888,567.368,398.239Z" transform="translate(-154.965 -103.636)" fill="#c03b2b"/>
    <path id="Path_202" data-name="Path 202" d="M505.217,366.775s-33.6-8.934-36.9-11.071S445.591,366,469.286,382.9c0,0,28.974,6.021,36.725,0S505.217,366.775,505.217,366.775Z" transform="translate(-154.965 -103.636)" fill="#fdc2cc"/>
    <path id="Path_203" data-name="Path 203" d="M577.856,313.559l4.079.194,12.042,32.241s7.186,16.9,8.546,19.616.777,13.984,0,17.286-5.827,17.868-6.021,21.559-9.323,7.38-18.645,6.8-31.075,2.331-31.075,2.331-23.231-2.428-37.485,4.856c0,0-9.128-18.84-8.157-53.994,0,0,16.12-.971,20.2.583s23.889,6.021,26.414,3.69,13.984,4.273,13.984,4.273a9.843,9.843,0,0,0,0-8.157c-1.942-4.661-5.244-19.228-.971-23.889S577.856,313.559,577.856,313.559Z" transform="translate(-154.965 -103.636)" opacity="0.1"/>
    <path id="Path_204" data-name="Path 204" d="M567.982,413.816c-9.641.653-20.424,2.1-20.424,2.1s-23.229-2.432-37.485,4.856c0,0-9.128-18.84-8.157-53.994,0,0,16.12-.971,20.2.583s23.889,6.021,26.414,3.69,13.984,4.273,13.984,4.273a9.844,9.844,0,0,0,0-8.157c-1.942-4.661-5.244-19.228-.971-23.889s17.091-27.385,17.091-27.385l3.791.179c-1.973,10.706-13.634,73.82-15.056,82.171C566.754,401.867,567.205,407.88,567.982,413.816Z" transform="translate(-154.965 -103.636)" opacity="0.1"/>
    <path id="Path_205" data-name="Path 205" d="M578.633,314.336l4.079.194,12.042,32.241s7.186,16.9,8.546,19.616.777,13.984,0,17.286-5.827,17.868-6.021,21.559-9.323,7.38-18.645,6.8-31.075,2.331-31.075,2.331-23.231-2.428-37.485,4.856c0,0-9.128-18.84-8.157-53.994,0,0,16.12-.971,20.2.583s23.889,6.021,26.414,3.69,13.984,4.273,13.984,4.273a9.844,9.844,0,0,0,0-8.157c-1.942-4.661-5.244-19.228-.971-23.889S578.633,314.336,578.633,314.336Z" transform="translate(-154.965 -103.636)" fill="#c03b2b"/>
    <rect id="Rectangle_144" data-name="Rectangle 144" width="5.7" height="51.3" transform="translate(387.482 285.04) rotate(-148.235)" fill="#dfe6f5"/>
    <ellipse id="Ellipse_27" data-name="Ellipse 27" cx="16.416" cy="11.514" rx="16.416" ry="11.514" transform="translate(400.113 237.354) rotate(-58.235)" fill="#dfe6f5"/>
    <ellipse id="Ellipse_28" data-name="Ellipse 28" cx="11.783" cy="8.265" rx="11.783" ry="8.265" transform="translate(405.314 235.126) rotate(-58.235)" opacity="0.1"/>
    <rect id="Rectangle_145" data-name="Rectangle 145" width="5.7" height="31.92" transform="translate(373.679 307.334) rotate(-148.235)" fill="#53526b"/>
    <path id="Path_206" data-name="Path 206" d="M495.312,409.893l11.848-3.3s58.461,1.554,38.844-22.53c0,0-10.294-9.905-31.852-1.942s-27.579,8.934-27.579,8.934Z" transform="translate(-154.965 -103.636)" fill="#fdc2cc"/>
    <circle id="Ellipse_29" data-name="Ellipse 29" cx="2.331" cy="2.331" r="2.331" transform="translate(329.275 200.017)" opacity="0.1"/>
    <circle id="Ellipse_30" data-name="Ellipse 30" cx="2.331" cy="2.331" r="2.331" transform="translate(369.285 198.658)" opacity="0.1"/>
    <circle id="Ellipse_31" data-name="Ellipse 31" cx="2.331" cy="2.331" r="2.331" transform="translate(329.275 199.24)" fill="#fff"/>
    <circle id="Ellipse_32" data-name="Ellipse 32" cx="2.331" cy="2.331" r="2.331" transform="translate(332.577 232.258)" opacity="0.1"/>
    <circle id="Ellipse_33" data-name="Ellipse 33" cx="2.331" cy="2.331" r="2.331" transform="translate(370.45 229.927)" opacity="0.1"/>
    <circle id="Ellipse_34" data-name="Ellipse 34" cx="2.331" cy="2.331" r="2.331" transform="translate(332.577 231.481)" fill="#fff"/>
    <circle id="Ellipse_35" data-name="Ellipse 35" cx="2.331" cy="2.331" r="2.331" transform="translate(369.479 342.395)" opacity="0.1"/>
    <circle id="Ellipse_36" data-name="Ellipse 36" cx="2.331" cy="2.331" r="2.331" transform="translate(338.806 342.395)" opacity="0.1"/>
    <circle id="Ellipse_37" data-name="Ellipse 37" cx="2.331" cy="2.331" r="2.331" transform="translate(369.479 341.618)" fill="#fff"/>
    <circle id="Ellipse_38" data-name="Ellipse 38" cx="2.331" cy="2.331" r="2.331" transform="translate(341.136 381.42)" opacity="0.1"/>
    <circle id="Ellipse_39" data-name="Ellipse 39" cx="2.331" cy="2.331" r="2.331" transform="translate(370.45 379.089)" opacity="0.1"/>
    <circle id="Ellipse_40" data-name="Ellipse 40" cx="2.331" cy="2.331" r="2.331" transform="translate(341.136 380.643)" fill="#fff"/>
    <circle id="Ellipse_41" data-name="Ellipse 41" cx="2.331" cy="2.331" r="2.331" transform="translate(338.806 341.618)" fill="#fff"/>
    <circle id="Ellipse_42" data-name="Ellipse 42" cx="2.331" cy="2.331" r="2.331" transform="translate(370.45 378.312)" fill="#fff"/>
    <circle id="Ellipse_43" data-name="Ellipse 43" cx="2.331" cy="2.331" r="2.331" transform="translate(369.285 197.881)" fill="#fff"/>
    <circle id="Ellipse_44" data-name="Ellipse 44" cx="2.331" cy="2.331" r="2.331" transform="translate(370.45 229.15)" fill="#fff"/>
    <path id="Path_207" data-name="Path 207" d="M531.243,416.885s.388,53.217,1.554,62.733C532.8,479.618,533.22,419.393,531.243,416.885Z" transform="translate(-154.965 -103.636)" opacity="0.1"/>
    <path id="Path_208" data-name="Path 208" d="M541.148,441.551c-.8,0,15.926,62.345,16.7,66.812S545.809,441.551,541.148,441.551Z" transform="translate(-154.965 -103.636)" opacity="0.1"/>
    <path id="Path_209" data-name="Path 209" d="M554.355,431.451c0,.583,9.323,33.794,13.984,35.543S554.355,431.451,554.355,431.451Z" transform="translate(-154.965 -103.636)" opacity="0.1"/>
    <path id="Path_210" data-name="Path 210" d="M591.063,366.775s-19.811.883-20.393,3.743S591.063,366.775,591.063,366.775Z" transform="translate(-154.965 -103.636)" opacity="0.1"/>
    <path id="Path_211" data-name="Path 211" d="M556.1,620.04s-14.178,6.021-12.042,6.409S556.1,620.04,556.1,620.04Z" transform="translate(-154.965 -103.636)" opacity="0.1"/>
    <path id="Path_212" data-name="Path 212" d="M526.776,611.106c-.552-1.242,9.517,5.05,9.517,5.827S527.553,612.854,526.776,611.106Z" transform="translate(-154.965 -103.636)" opacity="0.1"/>
    <path id="Path_213" data-name="Path 213" d="M539.983,631.5s11.071-.559,11.847,3.7S539.983,631.5,539.983,631.5Z" transform="translate(-154.965 -103.636)" opacity="0.1"/>
    <path id="Path_214" data-name="Path 214" d="M460.352,631.475s12.042-2.355,13.013,0S460.352,631.475,460.352,631.475Z" transform="translate(-154.965 -103.636)" opacity="0.1"/>
    <path id="Path_215" data-name="Path 215" d="M464.819,704.721s.79,9.905-2.13,12.236S464.819,704.721,464.819,704.721Z" transform="translate(-154.965 -103.636)" opacity="0.1"/>
    <path id="Path_216" data-name="Path 216" d="M463.348,725.7c3.8.388,23.806-3.108,23.612,0S463.348,725.7,463.348,725.7Z" transform="translate(-154.965 -103.636)" opacity="0.1"/>
    <path id="Path_217" data-name="Path 217" d="M555.132,713.655s-6.823-1.049-5.159,3.554Z" transform="translate(-154.965 -103.636)" opacity="0.1"/>
    <path id="Path_218" data-name="Path 218" d="M428.3,325.989h-3.69l-5.632,20.587s-1.942,7.186-3.884,8.934,1.748,17.674,1.748,17.674-2.136,11.265-3.884,14.178,2.719,10.1,2.719,10.1l8.934,20.976,23.7,6.215s41.758,9.128,43.7,10.488,3.69-.583,5.05-13.207,5.05-37.1,7.963-38.262c0,0-23.307,2.525-25.249,2.136s-11.265.194-11.265.194-12.236-.777-14.178.388,2.525-5.641,2.525-5.641a18.732,18.732,0,0,0,0-9.508C455.5,366,454.72,306.567,428.3,325.989Z" transform="translate(-154.965 -103.636)" opacity="0.1"/>
    <path id="Path_219" data-name="Path 219" d="M504.246,386c-2.913,1.165-6.6,25.637-7.963,38.262s-3.108,14.567-5.05,13.207c-1.577-1.1-29.413-7.334-39.815-9.633,1.639-9.672,2.525-20.471,2.525-20.471L424.421,328.32h3.108c26.414-19.422,27.191,40.01,28.551,45.254a18.736,18.736,0,0,1,0,9.509s-4.467,6.806-2.525,5.64,14.178-.388,14.178-.388,9.323-.583,11.265-.194S504.246,386,504.246,386Z" transform="translate(-154.965 -103.636)" opacity="0.1"/>
    <path id="Path_220" data-name="Path 220" d="M427.529,326.766h-3.69l-5.632,20.587s-1.942,7.186-3.884,8.934,1.748,17.674,1.748,17.674-2.136,11.265-3.884,14.178,2.719,10.1,2.719,10.1l8.934,20.976,23.7,6.215s41.758,9.128,43.7,10.488,3.69-.583,5.05-13.207,5.05-37.1,7.963-38.262c0,0-23.307,2.525-25.249,2.136s-11.265.194-11.265.194-12.236-.777-14.178.388,2.525-5.641,2.525-5.641a18.731,18.731,0,0,0,0-9.508C454.72,366.775,453.943,307.344,427.529,326.766Z" transform="translate(-154.965 -103.636)" fill="#c03b2b"/>
    <path id="Path_221" data-name="Path 221" d="M440.153,397.074s-10.682,20.2-12.624,17.868S440.153,397.074,440.153,397.074Z" transform="translate(-154.965 -103.636)" opacity="0.1"/>
    <path id="Path_222" data-name="Path 222" d="M429.082,385.572s-9.905,8.2-5.244,10.337S429.082,385.572,429.082,385.572Z" transform="translate(-154.965 -103.636)" opacity="0.1"/>
    <path id="Path_223" data-name="Path 223" d="M438.4,375.515c.777.194,14.372,2.894,14.567,4.069S438.4,375.515,438.4,375.515Z" transform="translate(-154.965 -103.636)" opacity="0.1"/>
    <path id="Path_224" data-name="Path 224" d="M532.688,233.236a2,2,0,0,0-1.328,2.082c-.792.7-1.9-.124-2.548-1.018s-1.391-1.981-2.377-1.857a8.532,8.532,0,0,0-1.36.567c-1.554.5-2.867-1.328-3.737-2.929q-2.272-4.207-4.545-8.406c-3.038,1.764-6.627-.085-9.641-1.911s-6.6-3.682-9.649-1.919c-4.467,2.579-4.63,11.179-9.26,13.3-1.492.684-3.224.536-4.607,1.476-1.367.932-2.105,2.727-2.719,4.444a4.707,4.707,0,0,1-1.523,2.509,3.346,3.346,0,0,1-1.569.381,6.733,6.733,0,0,1-4.04-.567,3.414,3.414,0,0,1-1.4-4.04,2.114,2.114,0,0,1,.124-.225,14.142,14.142,0,0,0,1.336-1.919c.466-1.235-.2-2.672-.054-4.009.241-2.284,2.657-3.488,3.069-5.733.171-.878-.008-1.818.155-2.7a2.463,2.463,0,0,1,.093-.342l-1.422.979c1.593-1.857,2.393-4.436,3.558-6.689a20.6,20.6,0,0,1,12.57-10.232c5.065-1.476,10.418-1.072,15.53.179a51.141,51.141,0,0,1,13.821,5.695,13.715,13.715,0,0,1,4.024,3.271,25.194,25.194,0,0,1,2.385,4.4c1.507,3.123,5.625,6.013,2.346,6.448-2.727.365-.241,2.276,1.189,3.566a3.708,3.708,0,0,1,.823.9,3.226,3.226,0,0,1-.171,3.115C531.212,232.755,533.449,232.9,532.688,233.236Z" transform="translate(-154.965 -103.636)" opacity="0.1"/>
    <path id="Path_225" data-name="Path 225" d="M532.688,232.46a2,2,0,0,0-1.328,2.082c-.792.7-1.9-.124-2.548-1.018s-1.391-1.981-2.377-1.857a8.533,8.533,0,0,0-1.359.567c-1.554.5-2.867-1.329-3.737-2.929q-2.272-4.207-4.545-8.406c-3.038,1.764-6.627-.085-9.641-1.911s-6.6-3.682-9.649-1.919c-4.467,2.579-4.63,11.179-9.26,13.3-1.492.684-3.224.536-4.607,1.476-1.367.932-2.105,2.727-2.719,4.444a4.707,4.707,0,0,1-1.523,2.509,3.345,3.345,0,0,1-1.569.381,6.733,6.733,0,0,1-4.04-.567,3.414,3.414,0,0,1-1.4-4.04,2.114,2.114,0,0,1,.124-.225,14.142,14.142,0,0,0,1.336-1.919c.466-1.235-.2-2.672-.054-4.009.241-2.284,2.657-3.488,3.069-5.733.171-.878-.008-1.818.155-2.7a2.457,2.457,0,0,1,.093-.342l-1.422.979c1.593-1.857,2.393-4.436,3.558-6.689a20.6,20.6,0,0,1,12.57-10.232c5.065-1.476,10.418-1.072,15.53.179a51.14,51.14,0,0,1,13.821,5.695,13.715,13.715,0,0,1,4.024,3.271,25.193,25.193,0,0,1,2.385,4.4c1.507,3.123,5.625,6.013,2.346,6.448-2.727.365-.241,2.276,1.189,3.566a3.709,3.709,0,0,1,.823.9,3.226,3.226,0,0,1-.171,3.115C531.212,231.978,533.449,232.118,532.688,232.46Z" transform="translate(-154.965 -103.636)" fill="#865a61"/>
    <path id="Path_226" data-name="Path 226" d="M531.111,227.262l-.311,3.271s-32.6-41.315-57.956,5.337l-.334-1.523a14.139,14.139,0,0,0,1.336-1.919c.466-1.235-.2-2.672-.054-4.009.241-2.284,2.657-3.488,3.069-5.733.171-.878-.008-1.818.155-2.7a2.458,2.458,0,0,1,.093-.342l-1.422.979c1.593-1.857,2.393-4.436,3.558-6.689a20.6,20.6,0,0,1,12.57-10.232c5.065-1.476,10.418-1.072,15.53.179a51.141,51.141,0,0,1,13.821,5.695,13.715,13.715,0,0,1,4.024,3.271,25.19,25.19,0,0,1,2.385,4.4c1.507,3.123,5.625,6.013,2.346,6.448C527.2,224.061,529.681,225.973,531.111,227.262Z" transform="translate(-154.965 -103.636)" opacity="0.1"/>
    <g id="Group_80" data-name="Group 80" opacity="0.1">
      <path id="Path_227" data-name="Path 227" d="M531.915,232.036a1.574,1.574,0,0,0-.369,1.345c-.793.7-1.9-.124-2.548-1.018s-1.391-1.981-2.377-1.857a8.531,8.531,0,0,0-1.36.567c-1.554.5-2.867-1.328-3.737-2.929q-2.272-4.207-4.545-8.406c-3.038,1.764-6.627-.085-9.641-1.911s-6.6-3.682-9.649-1.919c-4.467,2.579-4.63,11.179-9.261,13.3-1.492.684-3.224.536-4.607,1.476-1.367.932-2.105,2.727-2.719,4.444a4.707,4.707,0,0,1-1.523,2.509,3.345,3.345,0,0,1-1.569.381,6.732,6.732,0,0,1-4.04-.567,3.634,3.634,0,0,1-1.514-2.136,3.493,3.493,0,0,0,1.514,3.689,6.732,6.732,0,0,0,4.04.567,3.345,3.345,0,0,0,1.569-.381,4.707,4.707,0,0,0,1.523-2.509c.614-1.717,1.352-3.512,2.719-4.444,1.383-.94,3.115-.792,4.607-1.476,4.63-2.121,4.793-10.721,9.261-13.3,3.045-1.764,6.635.093,9.649,1.919s6.6,3.675,9.641,1.911q2.272,4.2,4.545,8.406c.87,1.6,2.183,3.426,3.737,2.929a8.532,8.532,0,0,1,1.36-.567c.987-.124,1.725.971,2.377,1.857s1.756,1.717,2.548,1.018a2,2,0,0,1,1.328-2.082C533.479,232.581,532.191,232.436,531.915,232.036Z" transform="translate(-154.965 -103.636)"/>
      <path id="Path_228" data-name="Path 228" d="M529.374,224.275a2.812,2.812,0,0,1,.734-.185c1.445-.192,1.452-.862.879-1.817a2.272,2.272,0,0,1-.879.264C528.548,222.745,528.7,223.46,529.374,224.275Z" transform="translate(-154.965 -103.636)"/>
      <path id="Path_229" data-name="Path 229" d="M532.351,230.782a3.511,3.511,0,0,0-.008-1.519,2.241,2.241,0,0,1-.394.855C531.706,230.427,532.005,230.626,532.351,230.782Z" transform="translate(-154.965 -103.636)"/>
      <path id="Path_230" data-name="Path 230" d="M474.023,228.544c-.017.089-.035.177-.045.269a8.912,8.912,0,0,0,.152,2.088,7.35,7.35,0,0,0-.107-2.357Z" transform="translate(-154.965 -103.636)"/>
      <path id="Path_231" data-name="Path 231" d="M477.177,219.066a11.268,11.268,0,0,1-1.3,1.947l1.254-.863a8.688,8.688,0,0,1,.049-1.084Z" transform="translate(-154.965 -103.636)"/>
    </g>
    <path id="Path_232" data-name="Path 232" d="M472.843,235.093s-4.688-20.956-3.2-24.316c0,0-4.048-8.3-4.048-10.28a19.631,19.631,0,0,0-2.983-9.292c-2.131-3.361-4.475-18.979,8.31-22.735s22.586-7.117,24.078-9.687,23.438-.988,29.4,8.9,9.8,7.908,9.8,7.908,9.162,5.733,9.162,10.873-2.77,7.71,0,8.9.639,22.537-11.506,23.13L530.8,229.755S498.2,188.437,472.843,235.093Z" transform="translate(-154.965 -103.636)" fill="#c03b2b"/>
    <path id="Path_233" data-name="Path 233" d="M474.239,172.554s-2.816,16.509,2.331,22.044Z" transform="translate(-154.965 -103.636)" opacity="0.1"/>
    <path id="Path_234" data-name="Path 234" d="M487.446,168.767s-7.186,17.674-5.438,21.073Z" transform="translate(-154.965 -103.636)" opacity="0.1"/>
    <path id="Path_235" data-name="Path 235" d="M493.661,163.134s-4.856,23.015-2.525,24.86Z" transform="translate(-154.965 -103.636)" opacity="0.1"/>
    <path id="Path_236" data-name="Path 236" d="M502.012,169.349s-6.021,14.761-3.593,16.8Z" transform="translate(-154.965 -103.636)" opacity="0.1"/>
    <path id="Path_237" data-name="Path 237" d="M513.374,171.1s-7.089,12.042-5.632,14.178Z" transform="translate(-154.965 -103.636)" opacity="0.1"/>
    <path id="Path_238" data-name="Path 238" d="M527.941,182.848s-7.575,2.039-6.021,4.467Z" transform="translate(-154.965 -103.636)" opacity="0.1"/>
    <path id="Path_239" data-name="Path 239" d="M535.127,195.375s-6.8,3.3-5.535,5.05Z" transform="translate(-154.965 -103.636)" opacity="0.1"/>
    <path id="Path_240" data-name="Path 240" d="M469.647,210.777s43.418-17.636,62.218,7.71C531.865,218.487,509.045,199.085,469.647,210.777Z" transform="translate(-154.965 -103.636)" opacity="0.1"/>
    <path id="Path_241" data-name="Path 241" d="M298.991,252.052l6.05-6.12,17.105,16.908-6.05,6.121-15.731-15.55Z" fill="#53526b"/>
    <path id="Path_242" data-name="Path 242" d="M414.267,316.454s26.479,2.253,51.124,29.993l-10.272,10.391Z" transform="translate(-154.965 -103.636)" fill="#dfe6f5"/>
    <path id="Path_243" data-name="Path 243" d="M493.69,366.053s-25.45-9.278-27.951-11.5-17.212,10.69.736,28.236c0,0,21.947,6.252,27.818,0S493.69,366.053,493.69,366.053Z" transform="translate(-154.965 -103.636)" fill="#fdc2cc"/>
    <rect id="Rectangle_146" data-name="Rectangle 146" width="5.175" height="116.436" transform="translate(804.65 439.739)" fill="#535461"/>
    <path id="Path_244" data-name="Path 244" d="M997.292,659.457l-.328,5.244-.457,7.4-.19,3.088-.457,7.409-.2,3.088-.457,7.4-5.218,84.188a14.259,14.259,0,0,1-14.231,13.377H948.648a14.25,14.25,0,0,1-14.222-13.376L929.2,693.085l-.457-7.4-.19-3.088-.466-7.409-.19-3.088-.457-7.4-.328-5.244a7.386,7.386,0,0,1,7.374-7.84h55.441a7.38,7.38,0,0,1,7.366,7.84Z" transform="translate(-154.965 -103.636)" fill="#65617d"/>
    <path id="Path_245" data-name="Path 245" d="M842,561.065l-.457,7.4H772.931l-.457-7.4Z" fill="#9d9cb5"/>
    <path id="Path_246" data-name="Path 246" d="M841.352,571.553l-.457,7.409H773.587l-.466-7.409Z" fill="#9d9cb5"/>
    <path id="Path_247" data-name="Path 247" d="M840.7,582.049l-.457,7.4H774.234l-.457-7.4Z" fill="#9d9cb5"/>
    <path id="Path_248" data-name="Path 248" d="M919.541,587.017c30.12,21.788,42.661,55.869,42.661,55.869s-36.294-1.244-66.414-23.032-42.661-55.869-42.661-55.869S889.421,565.229,919.541,587.017Z" transform="translate(-154.965 -103.636)" fill="#76c9b0"/>
    <path id="Path_249" data-name="Path 249" d="M853.127,563.985S890.8,584.9,902.883,602.207,962.2,642.886,962.2,642.886" transform="translate(-154.965 -103.636)" fill="none" stroke="#535461" stroke-miterlimit="10" stroke-width="2"/>
    <path id="Path_250" data-name="Path 250" d="M938.982,543.117c16.394,11.859,23.22,30.409,23.22,30.409s-19.754-.677-36.149-12.536-23.22-30.409-23.22-30.409S922.588,531.258,938.982,543.117Z" transform="translate(-154.965 -103.636)" fill="#76c9b0"/>
    <path id="Path_251" data-name="Path 251" d="M902.833,530.581s20.5,11.382,27.082,20.8S962.2,573.526,962.2,573.526" transform="translate(-154.965 -103.636)" fill="none" stroke="#535461" stroke-miterlimit="10" stroke-width="2"/>
    <path id="Path_252" data-name="Path 252" d="M986.026,572.582c-18.83,20.7-22.814,47.739-22.814,47.739s26.547-6.514,45.377-27.21,22.814-47.739,22.814-47.739S1004.86,551.886,986.026,572.582Z" transform="translate(-154.965 -103.636)" fill="#76c9b0"/>
    <path id="Path_253" data-name="Path 253" d="M1031.4,545.372s-24.528,21.215-30.762,35.832-37.429,39.117-37.429,39.117" transform="translate(-154.965 -103.636)" fill="none" stroke="#535461" stroke-miterlimit="10" stroke-width="2"/>
  </g>
</svg>
