<svg xmlns="http://www.w3.org/2000/svg" width="920.299" height="567.135" viewBox="0 0 920.299 567.135">
  <g id="undraw_pitching_re_fpgk" transform="translate(0 0)">
    <path id="Path_365" data-name="Path 365" d="M1050.24,538.7H409.649a9.922,9.922,0,0,1-9.911-9.911V176.343a9.922,9.922,0,0,1,9.911-9.911H1050.24a9.922,9.922,0,0,1,9.911,9.911V528.791A9.922,9.922,0,0,1,1050.24,538.7Z" transform="translate(-139.852 -166.432)" fill="#e6e6e6"/>
    <path id="Path_366" data-name="Path 366" d="M1036.72,525.187H423.163a9.922,9.922,0,0,1-9.911-9.911V189.857a9.922,9.922,0,0,1,9.911-9.911h613.56a9.922,9.922,0,0,1,9.911,9.911V515.276a9.922,9.922,0,0,1-9.914,9.911Z" transform="translate(-139.852 -166.432)" fill="#fff"/>
    <path id="Path_367" data-name="Path 367" d="M594.852,380.736H479.42a4.815,4.815,0,0,1-4.81-4.81V255.709a4.815,4.815,0,0,1,4.81-4.81H594.852a4.815,4.815,0,0,1,4.81,4.81V375.926A4.815,4.815,0,0,1,594.852,380.736ZM479.42,252.823a2.889,2.889,0,0,0-2.886,2.886V375.926a2.889,2.889,0,0,0,2.886,2.886H594.852a2.889,2.889,0,0,0,2.886-2.886V255.709a2.889,2.889,0,0,0-2.886-2.886Z" transform="translate(-139.852 -166.432)" fill="#3f3d56"/>
    <path id="Path_368" data-name="Path 368" d="M787.659,380.736H672.228a4.815,4.815,0,0,1-4.81-4.81V255.709a4.815,4.815,0,0,1,4.81-4.81H787.659a4.815,4.815,0,0,1,4.81,4.81V375.926a4.815,4.815,0,0,1-4.81,4.81ZM672.228,252.823a2.889,2.889,0,0,0-2.886,2.886V375.926a2.889,2.889,0,0,0,2.886,2.886H787.659a2.889,2.889,0,0,0,2.886-2.886V255.709a2.889,2.889,0,0,0-2.886-2.886Z" transform="translate(-139.852 -166.432)" fill="#3f3d56"/>
    <path id="Path_369" data-name="Path 369" d="M980.466,380.736H865.035a4.815,4.815,0,0,1-4.81-4.81V255.709a4.815,4.815,0,0,1,4.81-4.81H980.466a4.815,4.815,0,0,1,4.81,4.81V375.926a4.815,4.815,0,0,1-4.81,4.81ZM865.035,252.823a2.889,2.889,0,0,0-2.886,2.886V375.926a2.889,2.889,0,0,0,2.886,2.886H980.466a2.889,2.889,0,0,0,2.886-2.886V255.709a2.889,2.889,0,0,0-2.886-2.886Z" transform="translate(-139.852 -166.432)" fill="#3f3d56"/>
    <path id="Path_370" data-name="Path 370" d="M514.846,454.234a3.265,3.265,0,0,0,0-6.531h-29.3a3.265,3.265,0,1,0,0,6.531Z" transform="translate(-139.852 -166.432)" fill="#e6e6e6"/>
    <path id="Path_371" data-name="Path 371" d="M588.725,435a3.265,3.265,0,1,0,.012-6.531H485.547a3.265,3.265,0,1,0,0,6.531Z" transform="translate(-139.852 -166.432)" fill="#e6e6e6"/>
    <path id="Path_372" data-name="Path 372" d="M707.653,454.234a3.265,3.265,0,0,0,0-6.531h-29.3a3.265,3.265,0,1,0,0,6.531Z" transform="translate(-139.852 -166.432)" fill="#e6e6e6"/>
    <path id="Path_373" data-name="Path 373" d="M781.533,435a3.265,3.265,0,0,0,0-6.531H678.354a3.265,3.265,0,1,0,0,6.531Z" transform="translate(-139.852 -166.432)" fill="#e6e6e6"/>
    <path id="Path_374" data-name="Path 374" d="M900.461,454.234a3.265,3.265,0,1,0,0-6.531h-29.3a3.265,3.265,0,1,0,0,6.531Z" transform="translate(-139.852 -166.432)" fill="#e6e6e6"/>
    <path id="Path_375" data-name="Path 375" d="M974.34,435a3.265,3.265,0,0,0,0-6.531H871.161a3.265,3.265,0,0,0-.012,6.531Z" transform="translate(-139.852 -166.432)" fill="#e6e6e6"/>
    <path id="Path_376" data-name="Path 376" d="M588.725,416.075a3.265,3.265,0,0,0,0-6.531H485.547a3.265,3.265,0,0,0,0,6.531Z" transform="translate(-139.852 -166.432)" fill="#b8854c"/>
    <path id="Path_377" data-name="Path 377" d="M781.533,416.075a3.265,3.265,0,1,0,0-6.531H678.354a3.265,3.265,0,0,0,0,6.531Z" transform="translate(-139.852 -166.432)" fill="#b8854c"/>
    <path id="Path_378" data-name="Path 378" d="M974.34,416.075a3.265,3.265,0,1,0,0-6.531H871.161a3.265,3.265,0,1,0,0,6.531Z" transform="translate(-139.852 -166.432)" fill="#b8854c"/>
    <path id="Path_379" data-name="Path 379" d="M570.256,357.438a3.265,3.265,0,0,0,0-6.531h-66.24a3.265,3.265,0,1,0-.012,6.531h66.251Z" transform="translate(-139.852 -166.432)" fill="#e6e6e6"/>
    <path id="Path_380" data-name="Path 380" d="M570.256,338.2a3.265,3.265,0,0,0,0-6.531h-66.24A3.265,3.265,0,1,0,504,338.2h66.251Z" transform="translate(-139.852 -166.432)" fill="#e6e6e6"/>
    <circle id="Ellipse_81" data-name="Ellipse 81" cx="20.722" cy="20.722" r="20.722" transform="translate(376.562 107.766)" fill="#b8854c"/>
    <path id="Path_381" data-name="Path 381" d="M763.063,357.438a3.265,3.265,0,0,0,0-6.531H696.824a3.265,3.265,0,1,0,0,6.531Z" transform="translate(-139.852 -166.432)" fill="#e6e6e6"/>
    <path id="Path_382" data-name="Path 382" d="M763.063,338.2a3.265,3.265,0,0,0,0-6.531H696.824a3.265,3.265,0,1,0,0,6.531Z" transform="translate(-139.852 -166.432)" fill="#e6e6e6"/>
    <circle id="Ellipse_82" data-name="Ellipse 82" cx="20.722" cy="20.722" r="20.722" transform="translate(569.37 107.766)" fill="#b8854c"/>
    <path id="Path_383" data-name="Path 383" d="M955.87,357.438a3.265,3.265,0,0,0,.012-6.531H889.631a3.265,3.265,0,1,0,0,6.531Z" transform="translate(-139.852 -166.432)" fill="#e6e6e6"/>
    <path id="Path_384" data-name="Path 384" d="M955.87,338.2a3.265,3.265,0,1,0,.012-6.531H889.631a3.265,3.265,0,1,0,0,6.531Z" transform="translate(-139.852 -166.432)" fill="#e6e6e6"/>
    <circle id="Ellipse_83" data-name="Ellipse 83" cx="20.722" cy="20.722" r="20.722" transform="translate(762.177 107.766)" fill="#b8854c"/>
    <path id="Path_385" data-name="Path 385" d="M69.4,554.3H81.66l5.832-47.288H69.4Z" fill="#ffb6b6"/>
    <path id="Path_386" data-name="Path 386" d="M206.124,716.729h24.145a15.387,15.387,0,0,1,15.387,15.386v.5H206.125Z" transform="translate(-139.852 -166.432)" fill="#2f2e41"/>
    <path id="Path_387" data-name="Path 387" d="M111.4,554.3h12.26l5.832-47.288H111.4Z" fill="#ffb6b6"/>
    <path id="Path_388" data-name="Path 388" d="M248.124,716.729h24.145a15.387,15.387,0,0,1,15.387,15.386v.5H248.125Z" transform="translate(-139.852 -166.432)" fill="#2f2e41"/>
    <path id="Path_389" data-name="Path 389" d="M157.987,348.3,128.038,533.282l-20-1,.5-169.855Z" fill="#2f2e41"/>
    <path id="Path_390" data-name="Path 390" d="M217.1,458.212l72.666,1.009,8.074,55.508-49.453,23.213-21.5,156.772-19-1L200.951,499.59Z" transform="translate(-139.852 -166.432)" fill="#2f2e41"/>
    <circle id="Ellipse_84" data-name="Ellipse 84" cx="22.203" cy="22.203" r="22.203" transform="translate(98.442 104.06)" fill="#ffb9b9"/>
    <path id="Path_391" data-name="Path 391" d="M131.038,161.282l12.82,16.453L137.8,303.89l-47.434-1.009L82.294,192.874l10.092-28.259,3.652-6.333Z" fill="#e4e4e4"/>
    <path id="Path_392" data-name="Path 392" d="M292.792,391.6l11.1,42.388-11.1,42.388L310.958,500.6l16.148-76.7S315,361.324,313.986,354.259s-3.028-8.074-3.028-8.074l-8.074,1.009Z" transform="translate(-139.852 -166.432)" fill="#2f2e41"/>
    <path id="Path_393" data-name="Path 393" d="M72.2,241.317l-7.065,13.121-2.019,22.2,4.037,25.231L53.026,325.085,38.9,261.5l15.138-81.749h6.056Z" fill="#2f2e41"/>
    <path id="Path_394" data-name="Path 394" d="M241.295,298.447l-.526,8.976s-6.512-14.727-7.522-29.865,16.148-18.166,26.24-19.176,27.249,6.055,27.249,14.129-18.166,6.055-25.231,4.037-10.092,15.139-10.092,15.139l-4.037,1.009Z" transform="translate(-139.852 -166.432)" fill="#2f2e41"/>
    <path id="Path_395" data-name="Path 395" d="M295.82,405.731l-4.037,38.351,8.074,23.213,5.046,22.2s0,21.194-20.185,22.2S206,510.692,206,510.692s-8.074-1.009-15.139-17.157,14.129-31.287,14.129-31.287l6.055-21.194-2.018-26.24L194.9,346.185l41.884-21.7,10.6,103.448,22.708-100.42,7.569,5.551,32.3,13.12Z" transform="translate(-139.852 -166.432)" fill="#2f2e41"/>
    <path id="Path_396" data-name="Path 396" d="M257.738,567.136H0V565.03H258.12Z" fill="#3f3d56"/>
  </g>
</svg>
