<svg id="undraw_wine_tasting_re_4jjf" xmlns="http://www.w3.org/2000/svg" width="428.04" height="406.688" viewBox="0 0 428.04 406.688">
  <path id="Path_157" data-name="Path 157" d="M326.658,67.372v106a17.019,17.019,0,0,1-17,17h-106a17.019,17.019,0,0,1-17-17v-106a17.019,17.019,0,0,1,17-17h106A17.019,17.019,0,0,1,326.658,67.372Zm-17,121a15,15,0,0,0,15-15V119.932A67.559,67.559,0,0,0,257.1,52.372H203.658a15,15,0,0,0-15,15v106a15,15,0,0,0,15,15h106Z" fill="#e6e6e6"/>
  <g id="Group_71" data-name="Group 71">
    <path id="b-82" d="M213.465,148.673c5.642.914,10.687-1.256,11.268-4.847s-3.521-7.241-9.165-8.155a14.3,14.3,0,0,0-6.742.433l-23.954-3.571-1.436,11.277,23.767,2.323a14.3,14.3,0,0,0,6.262,2.54h0Z" fill="#ffb6b6"/>
    <path id="Path_158" data-name="Path 158" d="M127.862,65.65,114.78,72.9s17.918,54.11,23.992,63.336,65.1,15.894,65.1,15.894l.818-19.833L166.766,115.2l-38.9-49.555Z" fill="#2f2e41"/>
  </g>
  <g id="Group_72" data-name="Group 72">
    <path id="Path_159" data-name="Path 159" d="M109.589,396.13l13.588,0,3.481-52.756-17.072.349Z" fill="#ffb6b6"/>
    <path id="Path_160" data-name="Path 160" d="M156.141,395.821h0a11.666,11.666,0,0,1,.646,3.841h0a4.612,4.612,0,0,1-4.612,4.612H110.1a3.146,3.146,0,0,1-3.146-3.146v-1.752s-2.082-5.265,2.2-11.755c0,0,5.326,5.082,13.285-2.878l2.347-4.252,16.99,12.425,9.417,1.159c2.06.254,3.887-.039,4.947,1.746h0Z" fill="#2f2e41"/>
  </g>
  <g id="Group_73" data-name="Group 73">
    <path id="Path_161" data-name="Path 161" d="M94.589,396.13l13.588,0,6.463-52.409-20.054,0Z" fill="#ffb6b6"/>
    <path id="Path_162" data-name="Path 162" d="M141.141,395.821h0a11.666,11.666,0,0,1,.646,3.841h0a4.612,4.612,0,0,1-4.612,4.612H95.1a3.146,3.146,0,0,1-3.146-3.146v-1.752s-2.082-5.265,2.2-11.755c0,0,5.326,5.082,13.285-2.878l2.347-4.252,16.99,12.425,9.417,1.159c2.06.254,3.887-.039,4.947,1.746h0Z" fill="#2f2e41"/>
  </g>
  <circle id="Ellipse_20" data-name="Ellipse 20" cx="22.52" cy="22.52" r="22.52" transform="translate(107.028 7.691)" fill="#ffb6b6"/>
  <path id="Path_163" data-name="Path 163" d="M155.158,169.872,93.489,162.2s-5.331,39.669,2.669,55.669l-2,48S83.34,356.258,91.749,370.065l35.909-.693,1.5-85.5,26-114h0Z" fill="#2f2e41"/>
  <path id="Path_164" data-name="Path 164" d="M136.658,66.372l-23-16-4.661,8s-18.339,35-20.339,46,6,59,6,59l58,11s4-20,2-24-17.5-74.5-17.5-74.5l-.5-9.5Z" fill="#76c9b0"/>
  <path id="Path_165" data-name="Path 165" d="M130.158,76.872l-20-22.776s-29,31.776-28,45.776-5,108-5,108H123s17.154-40,20.154-61-13-70-13-70Z" fill="#2f2e41"/>
  <path id="Path_166" data-name="Path 166" d="M137.158,75.872s20.5,66.5,20.5,72.5-4.5,60.5-4.5,60.5H144.9l5.756-63.5-13.5-69.5Z" fill="#2f2e41"/>
  <path id="Path_167" data-name="Path 167" d="M138.158,17.872l2,8-3,12h-4.587s-8.413-12-11.413,1v7.24l-7,6.76a21.96,21.96,0,0,0-8-9c-6-4-13-27,5-32,0,0,13.31-14.907,25.945-11.313,1.334.379.253,2.983,1.555,3.813.78.5,3.957-.935,4.716-.253s.554,2.373,1.284,3.253c1.605,1.937,4.083,3.463,5.5,6.5,0,0,2,1-2,2s-10,2-10,2Z" fill="#2f2e41"/>
  <path id="c-83" d="M123.819,195.15c3.842,4.231,9.14,5.678,11.833,3.232s1.759-7.858-2.085-12.09a14.3,14.3,0,0,0-5.542-3.863l-16.507-17.722-8.151,7.924L120.5,189.261a14.3,14.3,0,0,0,3.314,5.889Z" fill="#ffb6b6"/>
  <path id="Path_168" data-name="Path 168" d="M108.618,76.872,93.869,74.389s-19.712,53.483-20.712,64.483,41,53,41,53l13-15-19-37,.461-63Z" fill="#2f2e41"/>
  <g id="Group_74" data-name="Group 74">
    <path id="Path_169" data-name="Path 169" d="M403.784,315.422c-.844-1.424-4.5.1-5.168-1.191s2.724-3.249,4.663-7.73c.35-.808,2.553-5.9.922-7.472-3.092-2.978-17.24,9.313-22.191,5.29-1.087-.883-1.846-2.645-5.134-5.506-1.308-1.138-2.1-1.652-2.865-1.461-1.086.271-1.172,1.725-2.337,4.584-1.747,4.287-2.78,4.028-3.8,7.449-.756,2.539-.583,4.016-1.472,4.3-1.258.407-2.416-2.286-4.011-2.045-1.627.246-2.611,3.382-2.922,5.73-.583,4.406,1.035,7.313,1.932,10.371.975,3.322,1.553,8.375-.7,15.528l-22.277,62.766c4.918-12.879,19.158-48.185,25.142-61.305,1.727-3.787,3.635-7.629,7.551-9.145,3.77-1.46,8.949-.588,15.55-2.179.771-.186,2.911-.73,3.18-1.988.223-1.04-1.036-1.621-.842-2.6.259-1.307,2.734-1.323,5.775-2.831a18,18,0,0,0,4.629-3.415c.346-.328,5.5-5.262,4.371-7.157h0Z" fill="#f2f2f2"/>
    <path id="Path_170" data-name="Path 170" d="M316.139,348.465c-.942,0-1.248,2.236-2.076,2.193s-.808-2.275-2.448-4.519c-.3-.4-2.159-2.955-3.4-2.608-2.354.658-.4,11.148-3.806,12.418a37.653,37.653,0,0,0-4.184.931c-.936.314-1.417.554-1.544.985-.18.611.508,1.073,1.575,2.47,1.6,2.094,1.175,2.527,2.56,4.013,1.028,1.1,1.8,1.445,1.687,1.964-.163.735-1.819.526-2.161,1.379-.349.87.907,2.257,1.969,3.087,1.994,1.557,3.888,1.6,5.647,2.044a14.83,14.83,0,0,1,7.42,4.823l24.378,29.044c-4.9-6.13-18.122-23.306-22.835-30.029-1.361-1.941-2.7-3.985-2.31-6.345.371-2.272,2.293-4.562,3.417-8.261.131-.432.481-1.639-.058-2.134-.446-.409-1.095.041-1.517-.335-.567-.5.14-1.724.277-3.651a10.247,10.247,0,0,0-.341-3.258c-.061-.265-1-4.215-2.251-4.21h0Z" fill="#f2f2f2"/>
    <path id="Path_171" data-name="Path 171" d="M334.939,352.685l-.568-5.068.259-.384a9.377,9.377,0,0,0,1.819-5.159c0-.262-.011-.524-.023-.79a7.928,7.928,0,0,1,.575-3.9c.384-.854,1.463-2.831,3.086-2.587a1.838,1.838,0,0,1,1.018.5l.115-.181a5.576,5.576,0,0,1,1.291-1.419,6.519,6.519,0,0,0,1.082-1.094c.21-.262.374-.492.513-.685a2.38,2.38,0,0,1,1.935-1.27,2.54,2.54,0,0,1,1.932,1.468,12.215,12.215,0,0,1,1.122,2.217,3.834,3.834,0,0,0,.19.436c.333.489,3.038.032,4.057-.135,2.289-.382,4.27-.712,5.087.732.585,1.033.151,2.4-1.33,4.168a8.275,8.275,0,0,1-1.388,1.3,1.7,1.7,0,0,1,.815,1.065h0c.308,1.228-.748,2.459-3.137,3.663a8.436,8.436,0,0,1-2.512.9,9.868,9.868,0,0,1-1.408.125,1.668,1.668,0,0,1-.207.751,2.507,2.507,0,0,1-2.61,1.05,20.463,20.463,0,0,1-3.694-.595,8.959,8.959,0,0,0-2.332-.348c-1.153.093-2.041,1.016-3.083,2.212l-2.6,3.042Z" fill="#f2f2f2"/>
    <path id="Path_172" data-name="Path 172" d="M337.572,322.509l-4.758,1.835-.437-.153a9.377,9.377,0,0,0-5.452-.451c-.254.065-.5.143-.759.223a7.928,7.928,0,0,1-3.922.434c-.924-.155-3.11-.7-3.285-2.329a1.838,1.838,0,0,1,.222-1.111l-.2-.065a5.576,5.576,0,0,1-1.7-.889,6.52,6.52,0,0,0-1.332-.769c-.307-.137-.571-.237-.793-.322a2.38,2.38,0,0,1-1.719-1.549,2.54,2.54,0,0,1,.93-2.241,12.216,12.216,0,0,1,1.86-1.648,3.834,3.834,0,0,0,.373-.294c.389-.446-.74-2.947-1.159-3.891-.95-2.118-1.772-3.95-.582-5.106.851-.828,2.282-.754,4.369.229a8.275,8.275,0,0,1,1.607,1.013,1.7,1.7,0,0,1,.823-1.058h0c1.11-.61,2.569.1,4.339,2.105a8.436,8.436,0,0,1,1.5,2.2,9.87,9.87,0,0,1,.478,1.331,1.668,1.668,0,0,1,.779.009c.852.21,1.429.962,1.678,2.258a20.463,20.463,0,0,1,.362,3.724,8.957,8.957,0,0,0,.255,2.344c.382,1.091,1.5,1.717,2.922,2.421l3.6,1.746Z" fill="#f2f2f2"/>
    <path id="Path_173" data-name="Path 173" d="M334.939,307.578l-.568-5.068.259-.384a9.377,9.377,0,0,0,1.819-5.159c0-.262-.011-.524-.023-.79a7.928,7.928,0,0,1,.575-3.9c.384-.854,1.463-2.831,3.086-2.587a1.838,1.838,0,0,1,1.018.5l.115-.181a5.576,5.576,0,0,1,1.291-1.419,6.519,6.519,0,0,0,1.082-1.094c.21-.262.374-.492.513-.685a2.38,2.38,0,0,1,1.935-1.27A2.54,2.54,0,0,1,347.973,287a12.215,12.215,0,0,1,1.122,2.217,3.834,3.834,0,0,0,.19.436c.333.489,3.038.032,4.057-.135,2.289-.382,4.27-.712,5.087.732.585,1.033.151,2.4-1.33,4.168a8.275,8.275,0,0,1-1.388,1.3,1.7,1.7,0,0,1,.815,1.065h0c.308,1.228-.748,2.459-3.137,3.663a8.436,8.436,0,0,1-2.512.9,9.868,9.868,0,0,1-1.408.125,1.668,1.668,0,0,1-.207.751,2.507,2.507,0,0,1-2.61,1.05,20.463,20.463,0,0,1-3.694-.595,8.959,8.959,0,0,0-2.332-.348c-1.153.093-2.041,1.016-3.083,2.212l-2.6,3.042Z" fill="#f2f2f2"/>
    <path id="Path_174" data-name="Path 174" d="M340.124,405.956l-1.062-.666-.257-1.226.257,1.226-1.238.142c-.02-.115-.087-.379-.188-.793a177.232,177.232,0,0,1-3.654-20.023,204.15,204.15,0,0,1-1.656-23.17c-.115-7.807.255-13.717.551-18.467.224-3.583.5-6.994.762-10.317.71-8.878,1.379-17.265.881-26.55a24.6,24.6,0,0,0-2.862-10.978,23.312,23.312,0,0,0-5.987-7.023l1.561-1.963a25.858,25.858,0,0,1,6.623,7.782,26.94,26.94,0,0,1,3.168,12.05c.507,9.449-.17,17.916-.887,26.88-.264,3.311-.536,6.708-.759,10.276-.294,4.706-.66,10.565-.546,18.271a201.652,201.652,0,0,0,1.634,22.886,174.432,174.432,0,0,0,3.6,19.749c.291,1.192.352,1.441.054,1.914h0Z" fill="#f2f2f2"/>
    <path id="Path_175" data-name="Path 175" d="M321.075,292.092c-.1,0-.207,0-.312-.01-2.134-.115-4.11-1.392-5.875-3.8-.827-1.131-1.251-2.42-2.095-4.992a31.3,31.3,0,0,1-1.154-5.176c-.253-1.809-.221-2.565.137-3.233a3.824,3.824,0,0,1,1.766-1.613,1.416,1.416,0,0,1,.1-.739c.427-1.045,1.563-.908,2.177-.842a6.154,6.154,0,0,0,1.117.069,3.149,3.149,0,0,0,1.548-.521,6.969,6.969,0,0,1,2.1-.825,7.472,7.472,0,0,1,3.942.313c2.71.9,4.046,3.01,5.593,5.45a19.135,19.135,0,0,1,2.065,4.713,5.6,5.6,0,0,1,.281,3.128c-.308,1.2-1.036,1.882-2.885,3.394a33.608,33.608,0,0,1-3.732,2.858c-1.937,1.118-3.153,1.821-4.768,1.821Z" fill="#f2f2f2"/>
  </g>
  <path id="Path_176" data-name="Path 176" d="M428.04,404.816h0a.84.84,0,0,1-.84.84H.84a.84.84,0,0,1-.84-.84H0a.84.84,0,0,1,.84-.84H427.2a.84.84,0,0,1,.84.84Z" fill="#e6e6e6"/>
  <g id="Group_75" data-name="Group 75">
    <path id="Path_177" data-name="Path 177" d="M235.7,111.559c-.064,5.8-10.018,11.891-19.131,11.791s-18.909-8.409-18.845-14.208,1.7-16.678,10.811-16.578,27.229,13.2,27.165,19h0Z" fill="#ff6884"/>
    <path id="Path_178" data-name="Path 178" d="M219.215,159.7l2.455-33.542s33.075-6.638,12.009-46.371L205.7,77.477s-29.877,34.174,5.462,49.063l1.12,33.138c-7.73.383-13.507,2.1-13.53,4.228-.027,2.485,7.785,4.586,17.45,4.692s17.521-1.823,17.548-4.308c.024-2.229-6.267-4.144-14.538-4.592h0Z" fill="#f2f2f2" opacity="0.28" style="isolation: isolate"/>
    <path id="Path_179" data-name="Path 179" d="M201.725,167.527c-2.653-.969-3.986-2.188-3.97-3.632.042-3.859,9.8-4.9,13.5-5.157l-1.065-31.53c-9.37-4.087-14.992-9.942-16.716-17.41-3.583-15.526,10.863-32.274,11.479-32.98l.332-.38,29.025,2.393.256.483c7.424,14,9.071,25.571,4.894,34.382-4.459,9.407-14.07,12.536-16.843,13.261l-2.328,31.8c6.916.49,14.5,2.189,14.467,5.538-.042,3.779-9.65,5.394-18.559,5.3a53.058,53.058,0,0,1-12.608-1.488q-1.018-.274-1.86-.582h0Zm4.412-89.011c-2.107,2.562-13.789,17.54-10.716,30.838,1.608,6.959,7.036,12.431,16.132,16.263l.59.249,1.174,34.762-.983.048c-8.939.443-5.455,2.781-5.463,3.551,0,.284-6.322.991-2.766,1.951a50.994,50.994,0,0,0,12.111,1.419c10.885.119,16.526-2.272,16.538-3.318.009-.837-3.888-3.056-13.592-3.583l-1.018-.055,2.585-35.316.744-.15c.114-.024,11.5-2.436,16.186-12.352,3.834-8.109,2.283-18.9-4.608-32.088l-18.435,3.051a7.569,7.569,0,0,1-8.479-5.27h0Z" fill="#3f3d56"/>
  </g>
  <g id="Group_76" data-name="Group 76">
    <path id="Path_180" data-name="Path 180" d="M341.416,111.4H307.2a1.565,1.565,0,1,1,0-3.129h34.221a1.565,1.565,0,0,1,0,3.129Z" fill="#3f3d56"/>
    <path id="Path_181" data-name="Path 181" d="M341.416,144.764H307.2a1.565,1.565,0,1,1,0-3.129h34.221a1.565,1.565,0,0,1,0,3.129Z" fill="#3f3d56"/>
    <path id="Path_182" data-name="Path 182" d="M359.779,128.093H288.832a1.565,1.565,0,1,1,0-3.129h70.947a1.565,1.565,0,0,1,0,3.129Z" fill="#3f3d56"/>
  </g>
  <g id="Group_77" data-name="Group 77">
    <circle id="Ellipse_21" data-name="Ellipse 21" cx="7" cy="7" r="7" transform="translate(264.658 90.372)" fill="#76c9b0"/>
    <path id="Path_183" data-name="Path 183" d="M271.41,100.372a.382.382,0,0,1-.319-.172l-2.1-3.2a.382.382,0,0,1,.639-.419l1.759,2.678,2.683-4.7a.382.382,0,1,1,.663.379l-2.992,5.236a.382.382,0,0,1-.32.192Z" fill="#fff"/>
  </g>
  <g id="Group_78" data-name="Group 78">
    <circle id="Ellipse_22" data-name="Ellipse 22" cx="7" cy="7" r="7" transform="translate(264.658 116.372)" fill="#76c9b0"/>
    <path id="Path_184" data-name="Path 184" d="M271.41,126.372a.382.382,0,0,1-.319-.172l-2.1-3.2a.382.382,0,0,1,.639-.419l1.759,2.678,2.683-4.7a.382.382,0,1,1,.663.379l-2.992,5.236a.382.382,0,0,1-.32.192Z" fill="#fff"/>
  </g>
  <g id="Group_79" data-name="Group 79">
    <circle id="Ellipse_23" data-name="Ellipse 23" cx="7" cy="7" r="7" transform="translate(264.658 142.372)" fill="#76c9b0"/>
    <path id="Path_185" data-name="Path 185" d="M271.41,152.372a.382.382,0,0,1-.319-.172l-2.1-3.2a.382.382,0,0,1,.639-.419l1.759,2.678,2.683-4.7a.382.382,0,1,1,.663.379l-2.992,5.236a.382.382,0,0,1-.32.192h-.012Z" fill="#fff"/>
  </g>
  <path id="Path_186" data-name="Path 186" d="M224.147,206.944c.059-.04.132-.066.189-.109a2.4,2.4,0,0,0,.535-3.244,5.288,5.288,0,0,0-3.579-2.35,4.242,4.242,0,0,0-.274-3.837c-1.308-2.148-3.875-2.2-6.169-2.2.018-.576.113-1.158.128-1.725a5.191,5.191,0,0,0-.438-2.344c-.759-1.625-2.643-2.111-4.172-2.733a33.861,33.861,0,0,0-4.893-1.9,5.468,5.468,0,0,0-1.385-.145,32.064,32.064,0,0,0-.312-3.336c-.179-1.851-.284-3.709-.34-5.568-.116-3.867-.021-7.736.076-11.6a1.251,1.251,0,0,0-2.5,0c-.093,3.723-.186,7.449-.088,11.173.049,1.859.145,3.717.312,5.57a17.455,17.455,0,0,1,.291,4.314c-.08,0-.145,0-.169-.038a1.371,1.371,0,0,0-1.059-.61,1.263,1.263,0,0,0-.629-.21c-3.42-.219-8.1.18-9.393,3.853-3.858.2-7.7,3.482-9.36,6.773a6.857,6.857,0,0,0,.588,7.343,7.214,7.214,0,0,0-3.951,5.352,6.306,6.306,0,0,0,2.719,5.929,5.718,5.718,0,0,0-1.388,2.47,3.911,3.911,0,0,0,1.221,3.9c1.347,1.065,3.08.619,4.566.132.027-.009.052-.02.079-.029-.007.028-.02.054-.026.082a4.78,4.78,0,0,0,.232,2.859c-1.916,1.251-2.658,4.281-2.6,6.557a4.342,4.342,0,0,0,2.343,3.96,9.654,9.654,0,0,0,3.5.944c-.112.267-.228.533-.33.8a3.308,3.308,0,0,0-.275,2.7c.5.953,1.522.99,2.469.99l2.491,0a10.391,10.391,0,0,0,1.181,6.148,7.556,7.556,0,0,0,5.369,3.307,9.683,9.683,0,0,0,6.767-1.738,10.515,10.515,0,0,0,3.65-3.833,7.543,7.543,0,0,0,4.909.818,6.52,6.52,0,0,0,4.291-3.345,7.625,7.625,0,0,0-1.1-8.465,7.885,7.885,0,0,0,3.969-2.992,3.919,3.919,0,0,0,.442-4.057,6.2,6.2,0,0,0-.481-.867,3.516,3.516,0,0,0,.675-.251c1.1-.586,1.083-1.99.859-3.05a4.923,4.923,0,0,0-.7-1.645,6.877,6.877,0,0,0,3.468-1.391,7.387,7.387,0,0,0,2.635-5.465,7.522,7.522,0,0,0-4.338-6.905Zm-35.055,13.111Zm.3,18.073.047.047C189.278,238.187,189.256,238.172,189.4,238.129ZM224.2,217.442c-1.465,1.116-3.483.926-5.209.825a1.107,1.107,0,0,0-.781.23,1.153,1.153,0,0,0-.722.781,1.26,1.26,0,0,0,.873,1.538,2.766,2.766,0,0,1,2.159,1.68,2.6,2.6,0,0,1,.18.708s0,.014,0,.019c-.292.033-.623.129-.893.136a7.933,7.933,0,0,1-1.242-.079c-1.28-.172-1.627,1.758-.631,2.329a4.315,4.315,0,0,1,1.851,1.988,1.772,1.772,0,0,1-.507,1.915,5.249,5.249,0,0,1-3.983,1.94.983.983,0,0,0-1.04.109,1.32,1.32,0,0,0-.722,1.137,1.219,1.219,0,0,0,.884,1.163c2.088,1.575,3.427,4.415,2.138,6.908-1.57,3.037-4.819,2.418-7.216.779a1.259,1.259,0,0,0-1.881,1.079c.031,1.664-2.23,3.271-3.517,4.024a6.843,6.843,0,0,1-4.847.95,4.861,4.861,0,0,1-3.57-2.714c-.731-1.683-.532-3.67-.4-5.448a1.128,1.128,0,0,0-1.489-1.16,1.271,1.271,0,0,0-.526-.107h-3.019l.012-.035q.15-.429.318-.852c.233-.584.507-1.15.795-1.708.4-.767-.074-1.975-1.079-1.881-1.7.159-5.071.047-5.273-2.211a8.779,8.779,0,0,1,.434-3.2c.2-.658.767-1.72,1.6-1.676a1.7,1.7,0,0,0,1.48-.236,1.278,1.278,0,0,0,.448-1.71,1.342,1.342,0,0,0-1.417-.584c-.032-.053-.065-.106-.094-.161-.01-.018-.057-.13-.077-.173s-.042-.13-.046-.144c-.026-.089-.048-.178-.067-.269-.007-.031-.013-.1-.016-.141-.006-.155-.011-.307-.007-.463a.4.4,0,0,0,0-.042c0-.006,0,0,0-.011.022-.083.034-.168.056-.251s.046-.16.072-.238c.006-.017.017-.043.028-.07a5.522,5.522,0,0,1,.463-.778l0-.006c.066-.076.131-.153.2-.228.1-.113.211-.221.321-.328.248-.239.511-.462.781-.676l.056-.044.184-.138c.151-.112.3-.222.455-.331a1.3,1.3,0,0,0,.5-1.6,1.155,1.155,0,0,0-1.79-.809c-1.707,1.144-3.952,2.479-6.054,2.635-1.022.076-1.282-.819-1.006-1.686a6.187,6.187,0,0,1,2.009-2.38,1.258,1.258,0,0,0-.552-2.089,3.6,3.6,0,0,1-2.766-4.27c.458-2.187,2.593-3.48,4.642-3.857a1.26,1.26,0,0,0,0-2.411c-2.948-.7-2.315-4.353-1.021-6.212,1.646-2.364,4.513-4.762,7.544-4.5a1.249,1.249,0,0,0,1.205-.918c.566-3.263,4.552-3.113,7.108-2.951a2.976,2.976,0,0,0,2.8.682,1.423,1.423,0,0,0,.823-.185c.076-.02.152-.038.227-.06,1.564-.449,3.228.577,4.646,1.155l2.37.965c.573.233,1.448.446,1.812.988a3,3,0,0,1,.227,1.836,11.283,11.283,0,0,0,.025,2.742,1,1,0,0,0,.389.621,1.162,1.162,0,0,0,.913.413c1.351.017,3.407-.317,4.591.47,1.407.935.746,2.638-.557,3.2-1.345.581-.357,2.592.963,2.285a4.039,4.039,0,0,1,3.626.831c.1.092.3.378.364.416a4.693,4.693,0,0,0-.708.227c-.812.28-1.629.543-2.444.814a1.256,1.256,0,0,0,.332,2.455c3.01-.01,6.195,2.169,6.037,5.445A4.833,4.833,0,0,1,224.2,217.442Z" fill="#3f3d56"/>
  <path id="Path_187" data-name="Path 187" d="M347.3,216.46c.059-.04.132-.066.189-.109a2.4,2.4,0,0,0,.535-3.244,5.288,5.288,0,0,0-3.579-2.35,4.242,4.242,0,0,0-.274-3.837c-1.308-2.148-3.875-2.2-6.169-2.2.018-.576.113-1.158.128-1.725a5.191,5.191,0,0,0-.438-2.344c-.759-1.625-2.643-2.111-4.172-2.733a33.861,33.861,0,0,0-4.893-1.9,5.468,5.468,0,0,0-1.385-.145,32.064,32.064,0,0,0-.312-3.336c-.179-1.851-.284-3.709-.34-5.568-.116-3.867-.021-7.736.076-11.6a1.251,1.251,0,0,0-2.5,0c-.093,3.723-.186,7.449-.088,11.173.049,1.859.145,3.717.312,5.57a17.455,17.455,0,0,1,.291,4.314c-.08,0-.145,0-.169-.038a1.371,1.371,0,0,0-1.059-.61,1.263,1.263,0,0,0-.629-.21c-3.42-.219-8.1.18-9.393,3.853-3.858.2-7.7,3.482-9.36,6.773a6.857,6.857,0,0,0,.588,7.343,7.214,7.214,0,0,0-3.951,5.352,6.306,6.306,0,0,0,2.719,5.929,5.718,5.718,0,0,0-1.388,2.47,3.911,3.911,0,0,0,1.221,3.9c1.347,1.065,3.08.619,4.566.132.027-.009.052-.02.079-.029-.007.028-.02.054-.026.082a4.78,4.78,0,0,0,.232,2.859c-1.916,1.251-2.658,4.281-2.6,6.557a4.342,4.342,0,0,0,2.343,3.96,9.654,9.654,0,0,0,3.5.944c-.112.267-.228.533-.33.8a3.308,3.308,0,0,0-.275,2.7c.5.953,1.522.99,2.469.99l2.491,0a10.391,10.391,0,0,0,1.181,6.148,7.556,7.556,0,0,0,5.369,3.307,9.683,9.683,0,0,0,6.767-1.738,10.515,10.515,0,0,0,3.65-3.833,7.543,7.543,0,0,0,4.909.818,6.52,6.52,0,0,0,4.291-3.345,7.625,7.625,0,0,0-1.1-8.465,7.885,7.885,0,0,0,3.969-2.992,3.919,3.919,0,0,0,.442-4.057,6.2,6.2,0,0,0-.481-.867,3.516,3.516,0,0,0,.675-.251c1.1-.586,1.083-1.99.859-3.05a4.923,4.923,0,0,0-.7-1.645,6.877,6.877,0,0,0,3.468-1.391,7.387,7.387,0,0,0,2.635-5.465,7.522,7.522,0,0,0-4.338-6.905Zm-35.055,13.111Zm.3,18.073.047.047C312.435,247.7,312.413,247.688,312.553,247.645Zm34.807-20.687c-1.465,1.116-3.483.926-5.209.825a1.107,1.107,0,0,0-.781.23,1.153,1.153,0,0,0-.722.781,1.26,1.26,0,0,0,.873,1.538,2.766,2.766,0,0,1,2.159,1.68,2.6,2.6,0,0,1,.18.708s0,.014,0,.019c-.292.033-.623.129-.893.136a7.933,7.933,0,0,1-1.242-.079c-1.28-.172-1.627,1.758-.631,2.329a4.315,4.315,0,0,1,1.851,1.988,1.772,1.772,0,0,1-.507,1.915,5.249,5.249,0,0,1-3.983,1.94.983.983,0,0,0-1.04.109,1.32,1.32,0,0,0-.722,1.137,1.219,1.219,0,0,0,.884,1.163c2.088,1.575,3.427,4.415,2.138,6.908-1.57,3.037-4.819,2.418-7.216.779a1.259,1.259,0,0,0-1.881,1.079c.031,1.664-2.23,3.271-3.517,4.024a6.843,6.843,0,0,1-4.847.95,4.861,4.861,0,0,1-3.57-2.714c-.731-1.683-.532-3.67-.4-5.448a1.128,1.128,0,0,0-1.489-1.16,1.271,1.271,0,0,0-.526-.107h-3.019l.012-.035q.15-.429.318-.852c.233-.584.507-1.15.795-1.708.4-.767-.074-1.975-1.079-1.881-1.7.159-5.071.047-5.273-2.211a8.779,8.779,0,0,1,.434-3.2c.2-.658.767-1.72,1.6-1.676a1.7,1.7,0,0,0,1.48-.236,1.278,1.278,0,0,0,.448-1.71,1.342,1.342,0,0,0-1.417-.584c-.032-.053-.065-.106-.094-.161-.01-.018-.057-.13-.077-.173s-.042-.13-.046-.144c-.026-.089-.048-.178-.067-.269-.007-.031-.013-.1-.016-.141-.006-.155-.011-.307-.007-.463a.4.4,0,0,0,0-.042c0-.006,0,0,0-.011.022-.083.034-.168.056-.251s.046-.16.072-.238c.006-.017.017-.043.028-.07a5.522,5.522,0,0,1,.463-.778l0-.006c.066-.076.131-.153.2-.228.1-.113.211-.221.321-.328.248-.239.511-.462.781-.676l.056-.044.184-.138c.151-.112.3-.222.455-.331a1.3,1.3,0,0,0,.5-1.6,1.155,1.155,0,0,0-1.79-.809c-1.707,1.144-3.952,2.479-6.054,2.635-1.022.076-1.282-.819-1.006-1.686a6.187,6.187,0,0,1,2.009-2.38,1.258,1.258,0,0,0-.552-2.089,3.6,3.6,0,0,1-2.766-4.27c.458-2.187,2.593-3.48,4.642-3.857a1.26,1.26,0,0,0,0-2.411c-2.948-.7-2.315-4.353-1.021-6.212,1.646-2.364,4.513-4.762,7.544-4.5a1.249,1.249,0,0,0,1.205-.918c.566-3.263,4.552-3.113,7.108-2.951a2.976,2.976,0,0,0,2.8.682,1.423,1.423,0,0,0,.823-.185c.076-.02.152-.038.227-.06,1.564-.449,3.228.577,4.646,1.155l2.37.965c.573.233,1.448.446,1.812.988a3,3,0,0,1,.227,1.836,11.283,11.283,0,0,0,.025,2.742,1,1,0,0,0,.389.621,1.162,1.162,0,0,0,.913.413c1.351.017,3.407-.317,4.591.47,1.407.935.746,2.638-.557,3.2-1.345.581-.357,2.592.963,2.285a4.039,4.039,0,0,1,3.626.831c.1.092.3.378.364.416a4.693,4.693,0,0,0-.708.227c-.812.28-1.629.543-2.444.814a1.256,1.256,0,0,0,.332,2.455c3.01-.01,6.195,2.169,6.037,5.445a4.833,4.833,0,0,1-1.782,3.593Z" fill="#e6e6e6"/>
</svg>
