<svg xmlns="http://www.w3.org/2000/svg" width="24" height="27" viewBox="0 0 24 27">
  <g id="bookmark-svgrepo-com" transform="translate(-4)">
    <path id="Path_145" data-name="Path 145" d="M12.1,0H4V26.536a.282.282,0,0,0,.48.2L12.1,19.257l7.616,7.474a.282.282,0,0,0,.48-.2V0Z" transform="translate(0)" fill="#d75a4a"/>
    <rect id="Rectangle_142" data-name="Rectangle 142" width="16" height="6" transform="translate(4)" fill="#c03b2b"/>
    <g id="Group_64" data-name="Group 64" transform="translate(16.458 16.325)">
      <ellipse id="Ellipse_19" data-name="Ellipse 19" cx="6" cy="5.5" rx="6" ry="5.5" transform="translate(-0.458 -0.325)" fill="#76c9b0"/>
      <path id="Path_146" data-name="Path 146" d="M42.542,39.979h-2.53V37.5A.506.506,0,0,0,39,37.5v2.979a.5.5,0,0,0,.506.5h3.036a.5.5,0,1,0,0-.993Z" transform="translate(-33.748 -34.954)" fill="#fff"/>
    </g>
  </g>
</svg>
