<svg xmlns="http://www.w3.org/2000/svg" width="488" height="488" viewBox="0 0 488 488">
  <g id="clock-svgrepo-com" transform="translate(0 -540.36)">
    <g id="Group_51" data-name="Group 51">
      <g id="Group_50" data-name="Group 50">
        <path id="Path_121" data-name="Path 121" d="M351.1,846.96,254,779.06V662.36a10,10,0,0,0-20,0v122a9.966,9.966,0,0,0,4.3,8.2l101.4,70.9a9.877,9.877,0,0,0,5.7,1.8h0a9.954,9.954,0,0,0,8.2-4.4A10.069,10.069,0,0,0,351.1,846.96Z" fill="#afb1af"/>
        <path id="Path_122" data-name="Path 122" d="M416.4,611.96h0A243.354,243.354,0,1,0,488,784.36,242.245,242.245,0,0,0,416.4,611.96ZM254,1008.16h0v-40.8a10,10,0,0,0-20,0v40.8c-115.6-5.1-208.7-98.2-213.8-213.8H61a10,10,0,0,0,0-20H20.2c5.1-115.6,98.2-208.7,213.8-213.8v40.8a10,10,0,0,0,20,0v-40.8c115.6,5.1,208.7,98.2,213.8,213.8H427a10,10,0,0,0,0,20h40.8C462.7,909.96,369.6,1003.06,254,1008.16Z" fill="#afb1af"/>
      </g>
    </g>
  </g>
</svg>
