<svg xmlns="http://www.w3.org/2000/svg" width="24.286" height="24.116" viewBox="0 0 24.286 24.116">
  <path id="date-svgrepo-com" d="M6.889,0a.847.847,0,0,1,.85.844V2.422h9.128V.854a.85.85,0,0,1,1.7,0V2.422h3.291a2.42,2.42,0,0,1,2.429,2.41V21.706a2.42,2.42,0,0,1-2.429,2.41H2.429A2.42,2.42,0,0,1,0,21.706V4.833a2.42,2.42,0,0,1,2.429-2.41h3.61V.844A.847.847,0,0,1,6.889,0ZM1.7,9.335v12.37a.726.726,0,0,0,.729.723H21.857a.726.726,0,0,0,.729-.723V9.352Zm6.4,8.292v2.009H6.071V17.627Zm5.059,0v2.009H11.131V17.627Zm5.06,0v2.009H16.19V17.627ZM8.1,12.832v2.009H6.071V12.832Zm5.059,0v2.009H11.131V12.832Zm5.06,0v2.009H16.19V12.832ZM6.039,4.109H2.429a.726.726,0,0,0-.729.723V7.648l20.886.017V4.833a.726.726,0,0,0-.729-.723H18.566V5.23a.85.85,0,0,1-1.7,0V4.109H7.739v1.11a.85.85,0,0,1-1.7,0Z" fill="#d75a4a"/>
</svg>
