<svg id="menu-svgrepo-com" xmlns="http://www.w3.org/2000/svg" width="25.632" height="24.692" viewBox="0 0 25.632 24.692">
  <path id="Path_147" data-name="Path 147" d="M24.467,0H1.165A1.144,1.144,0,0,0,0,1.122V23.569a1.144,1.144,0,0,0,1.165,1.122h23.3a1.144,1.144,0,0,0,1.165-1.122V1.122A1.144,1.144,0,0,0,24.467,0ZM23.3,22.447H2.33V2.245H23.3Z" fill="#d75a4a"/>
  <path id="Path_148" data-name="Path 148" d="M76.166,82.244H87.817a1.123,1.123,0,1,0,0-2.245H76.166a1.123,1.123,0,1,0,0,2.245Z" transform="translate(-69.176 -74.013)" fill="#d75a4a"/>
  <path id="Path_149" data-name="Path 149" d="M76.166,152.244H87.817a1.123,1.123,0,1,0,0-2.245H76.166a1.123,1.123,0,1,0,0,2.245Z" transform="translate(-69.176 -138.776)" fill="#d75a4a"/>
  <path id="Path_150" data-name="Path 150" d="M76.166,222.244H87.817a1.123,1.123,0,1,0,0-2.245H76.166a1.123,1.123,0,1,0,0,2.245Z" transform="translate(-69.176 -203.538)" fill="#d75a4a"/>
</svg>
