<svg xmlns="http://www.w3.org/2000/svg" width="208.93" height="219.793" viewBox="0 0 208.93 219.793">
  <path id="Path_120" data-name="Path 120" d="M159.4,25.975q-1.374,0-2.759.07a54.97,54.97,0,0,0-93.489,0q-1.385-.071-2.76-.07A54.958,54.958,0,0,0,46.863,134.2v78.092a7.5,7.5,0,0,0,7.5,7.5H165.429a7.5,7.5,0,0,0,7.5-7.5V134.205A54.961,54.961,0,0,0,159.4,25.975Zm-1.471,178.817H61.863V190.656h96.068v14.136Zm6.556-84.229a7.5,7.5,0,0,0-6.556,7.44v50.152H143.541V131.376a6.25,6.25,0,0,0-12.5,0v46.779h-14.9V131.376a6.25,6.25,0,0,0-12.5,0v46.779H88.752V131.376a6.25,6.25,0,0,0-12.5,0v46.779H61.863V128.73q.012-.128.021-.255a7.5,7.5,0,0,0-6.547-7.912,39.954,39.954,0,1,1,10.9-79.157,7.5,7.5,0,0,0,7.813-4.1,39.963,39.963,0,0,1,71.7,0,7.5,7.5,0,0,0,7.814,4.1,39.955,39.955,0,1,1,10.923,79.157Z" transform="translate(-5.431)" fill="#afb1af"/>
</svg>
