<svg xmlns="http://www.w3.org/2000/svg" width="29.299" height="24.62" viewBox="0 0 29.299 24.62">
  <g id="people-svgrepo-com" transform="translate(-0.221 -3.998)">
    <path id="Path_154" data-name="Path 154" d="M.221,21.627a20.715,20.715,0,0,0,2.225,2.73c0-.082-.012-.159-.012-.241a7.272,7.272,0,0,1,4.021-6.721,1.423,1.423,0,0,0,.8-1.2,1.518,1.518,0,0,0-.58-1.36,4.449,4.449,0,0,1-1.751-3.647A4.365,4.365,0,0,1,7.146,7.237a3.344,3.344,0,0,1,4.021.787A6.78,6.78,0,0,1,13.682,7a5.9,5.9,0,0,0-5.8-2.947A6.427,6.427,0,0,0,2.864,8.51a8.075,8.075,0,0,0,.977,7.229A10.246,10.246,0,0,0,.221,21.627Zm29.3,0A10.247,10.247,0,0,0,25.9,15.737a8.077,8.077,0,0,0,.969-7.223,6.427,6.427,0,0,0-5.015-4.456A5.9,5.9,0,0,0,16.06,6.992,6.778,6.778,0,0,1,18.575,8.02a3.353,3.353,0,0,1,3.849-.852,4.263,4.263,0,0,1,2.376,3.6,4.546,4.546,0,0,1-1.73,4.062,1.518,1.518,0,0,0-.58,1.36,1.423,1.423,0,0,0,.8,1.2,7.272,7.272,0,0,1,4.021,6.723c0,.082-.01.159-.012.24A20.714,20.714,0,0,0,29.521,21.627Z" transform="translate(0 0)" fill="#b8854c"/>
    <path id="Path_155" data-name="Path 155" d="M22.344,26.085a10.473,10.473,0,0,0-3.837-7.348,7.829,7.829,0,0,0,1.407-4.555A7.137,7.137,0,0,0,15.5,7.312a5.821,5.821,0,0,0-6.974,2.879,8.088,8.088,0,0,0,.356,8.545,10.473,10.473,0,0,0-3.837,7.348A17.352,17.352,0,0,0,7.494,27.3c0-.065-.017-.125-.017-.191A7.275,7.275,0,0,1,11.5,20.392a1.423,1.423,0,0,0,.8-1.2,1.518,1.518,0,0,0-.581-1.36,4.443,4.443,0,0,1-1.751-3.645,4.052,4.052,0,0,1,3.731-4.31,4.052,4.052,0,0,1,3.731,4.31,4.443,4.443,0,0,1-1.751,3.645,1.518,1.518,0,0,0-.581,1.36,1.423,1.423,0,0,0,.8,1.2,7.275,7.275,0,0,1,4.021,6.721c0,.066-.015.126-.016.191a17.349,17.349,0,0,0,2.446-1.22Z" transform="translate(1.176 1.312)" fill="#b8854c"/>
  </g>
</svg>
