<svg xmlns="http://www.w3.org/2000/svg" width="25.783" height="23.732" viewBox="0 0 25.783 23.732">
  <g id="table-svgrepo-com" transform="translate(0 -40.769)">
    <path id="Path_151" data-name="Path 151" d="M52.953,76.835H50.979V64.643h7.636a.994.994,0,0,0,.858-1.089V58.166a.994.994,0,0,0-.858-1.089H41.627a.994.994,0,0,0-.858,1.089v5.389a.994.994,0,0,0,.858,1.089h7.636V76.835H47.29a1.12,1.12,0,0,0,0,2.177h5.663a1.12,1.12,0,0,0,0-2.177ZM42.485,59.254H57.758v3.211H42.485Z" transform="translate(-37.23 -14.512)" fill="#b8854c"/>
    <path id="Path_152" data-name="Path 152" d="M0,63.412A.994.994,0,0,0,.858,64.5a.994.994,0,0,0,.858-1.089v-6.1H7.079v6.1A.994.994,0,0,0,7.937,64.5a.994.994,0,0,0,.858-1.089V52.635a.994.994,0,0,0-.858-1.089H1.716V41.858a.994.994,0,0,0-.858-1.089A.994.994,0,0,0,0,41.858Zm1.716-9.689H7.079v1.415H1.716Z" fill="#b8854c"/>
    <path id="Path_153" data-name="Path 153" d="M195.693,63.412a.882.882,0,1,0,1.716,0v-6.1h5.363v6.1a.882.882,0,1,0,1.716,0V41.858a.882.882,0,1,0-1.716,0v9.689h-6.221a.994.994,0,0,0-.858,1.089Zm1.716-8.274V53.724h5.363v1.415Z" transform="translate(-178.704)" fill="#b8854c"/>
  </g>
</svg>
