<svg xmlns="http://www.w3.org/2000/svg" width="26.664" height="24.044" viewBox="0 0 26.664 24.044">
  <g id="time-svgrepo-com" transform="translate(-0.004)">
    <path id="Path_136" data-name="Path 136" d="M13.335,0C5.984,0,0,5.393,0,12.022s5.98,12.022,13.332,12.022,13.332-5.393,13.332-12.022S20.686,0,13.335,0Zm0,22.306c-6.288,0-11.4-4.614-11.4-10.284S7.047,1.738,13.335,1.738s11.4,4.613,11.4,10.284S19.624,22.306,13.335,22.306Z" fill="#76c9b0"/>
    <path id="Path_137" data-name="Path 137" d="M150.47,79.5h-.015l-2.879.039V72.748a.969.969,0,0,0-1.927,0v7.677s0,0,0,.005,0,.006,0,.008a.77.77,0,0,0,.013.1c0,.021,0,.043.008.064a.766.766,0,0,0,.037.107c.007.018.012.037.02.055a.876.876,0,0,0,.061.1c.01.015.017.031.028.045a.942.942,0,0,0,.083.09c.012.012.022.026.035.038a1,1,0,0,0,.1.075c.014.01.027.021.041.03a.97.97,0,0,0,.121.059c.014.006.027.015.042.02a1.072,1.072,0,0,0,.152.042l.029.008a1.082,1.082,0,0,0,.193.018h.015l3.858-.052a.873.873,0,1,0-.014-1.738Z" transform="translate(-133.277 -66.375)" fill="#76c9b0"/>
  </g>
</svg>
